<?xml version="1.0" encoding="utf-8"?>

<!DOCTYPE svg PUBLIC "-//W3C//DTD SVG 1.1//EN" "http://www.w3.org/Graphics/SVG/1.1/DTD/svg11.dtd">
<!-- Uploaded to: SVG Repo, www.svgrepo.com, Generator: SVG Repo Mixer Tools -->
<svg height="800px" width="800px" version="1.1" id="_x32_" xmlns="http://www.w3.org/2000/svg" xmlns:xlink="http://www.w3.org/1999/xlink" 
	 viewBox="0 0 512 512"  xml:space="preserve">
<style type="text/css">
	.st0{fill:#000000;}
</style>
<g>
	<path class="st0" d="M202.622,344.796l-6.208,11.926l-0.263,0.484c-14.411,24.499-41.026,39.714-69.478,39.714
		c-14.272,0-28.371-3.847-40.731-11.122c-18.544-10.908-31.733-28.37-37.122-49.195c-0.238-0.886-0.434-1.78-0.632-2.674
		L37.92,412.74h173.617L202.622,344.796z"/>
	<path class="st0" d="M212.883,59.091L66.446,280.944c-19.578,33.283-8.465,76.172,24.844,95.749
		c33.299,19.587,76.17,8.464,95.756-24.843l99.391-191.063l-54.788-52.082C217.361,93.974,212.497,77.52,212.883,59.091z
		 M150.794,330.533c-7.808,13.288-24.909,17.716-38.188,9.916c-13.287-7.824-17.724-24.909-9.907-38.196
		c7.808-13.288,24.909-17.716,38.187-9.908C154.165,300.161,158.611,317.254,150.794,330.533z"/>
	<path class="st0" d="M216.401,422.247H34.278c-12.402,0-22.449,10.055-22.449,22.457V512h227.012v-67.296
		C238.841,432.302,228.794,422.247,216.401,422.247z"/>
	<path class="st0" d="M450.024,185.737c7.184,0,14.082,1.255,20.48,3.559L328.505,19.542c-22.646-24.606-60.956-26.188-85.554-3.535
		c-24.606,22.637-26.18,60.949-3.535,85.546l149.955,142.458C390.65,211.663,417.356,185.737,450.024,185.737z M299.584,77.537
		c-9.374,8.628-23.973,8.013-32.602-1.361c-8.645-9.375-8.038-23.974,1.345-32.603c9.375-8.644,23.974-8.038,32.619,1.346
		C309.575,54.293,308.967,68.892,299.584,77.537z"/>
	<polygon class="st0" points="431.668,365.227 451.246,387.249 470.815,365.227 470.815,328.975 431.668,328.975 	"/>
	<path class="st0" d="M450.024,196.292c-27.698,0-50.155,22.449-50.155,50.155v72.169h100.301v-72.169
		C500.171,218.741,477.73,196.292,450.024,196.292z M450.024,264.492c-10.818,0-19.578-8.768-19.578-19.578
		c0-10.818,8.76-19.586,19.578-19.586c10.81,0,19.586,8.767,19.586,19.586C469.61,255.723,460.835,264.492,450.024,264.492z"/>
</g>
</svg>